<?xml version="1.0" encoding="utf-8"?>
<!-- Generator: Adobe Illustrator 16.0.0, SVG Export Plug-In . SVG Version: 6.00 Build 0)  -->
<!DOCTYPE svg PUBLIC "-//W3C//DTD SVG 1.1//EN" "http://www.w3.org/Graphics/SVG/1.1/DTD/svg11.dtd">
<svg version="1.1" id="Layer_1" xmlns="http://www.w3.org/2000/svg" xmlns:xlink="http://www.w3.org/1999/xlink" x="0px" y="0px"
	 width="416px" height="416px" viewBox="0 0 416 416" enable-background="new 0 0 416 416" xml:space="preserve">
<path opacity="0.05" fill="none" stroke="#FFFFFF" enable-background="new    " d="M208,415.5c114.6,0,207.5-92.901,207.5-207.5
	C415.5,93.4,322.6,0.5,208,0.5S0.5,93.4,0.5,208C0.5,322.599,93.4,415.5,208,415.5z"/>
<path opacity="0.1" fill="none" stroke="#FFFFFF" enable-background="new    " d="M208.5,363.5c86.156,0,156-69.844,156-156
	s-69.844-156-156-156s-156,69.844-156,156S122.344,363.5,208.5,363.5z"/>
<g opacity="0.15">
	<path fill="#8785C0" d="M208,332.5c69.313,0,125.5-56.188,125.5-125.5S277.313,81.5,208,81.5S82.5,137.688,82.5,207
		S138.688,332.5,208,332.5z"/>
</g>
<g opacity="0.2">
	<path fill="#8785C0" d="M207.5,307.5c55.781,0,101-45.219,101-101s-45.219-101-101-101s-101,45.219-101,101
		S151.719,307.5,207.5,307.5z"/>
</g>
<path fill="none" stroke="#FFFFFF" stroke-width="12" d="M207.5,280.5c40.316,0,73-32.907,73-73.5s-32.684-73.5-73-73.5
	s-73,32.907-73,73.5S167.184,280.5,207.5,280.5z"/>
<linearGradient id="SVGID_1_" gradientUnits="userSpaceOnUse" x1="227.8975" y1="239.6318" x2="150.0389" y2="128.8985" gradientTransform="matrix(1 0 0 -1 0.105 416.7598)">
	<stop  offset="0" style="stop-color:#626BA3"/>
	<stop  offset="1" style="stop-color:#DA4480"/>
</linearGradient>
<path fill="none" stroke="url(#SVGID_1_)" stroke-width="10" stroke-linecap="round" stroke-linejoin="round" stroke-dasharray="180,165" d="
	M280.455,204.434c1.417,40.569-30.322,74.604-70.891,76.021c-40.567,1.416-74.604-30.322-76.02-70.891
	c-1.417-40.568,30.322-74.604,70.891-76.021C245.003,132.128,279.038,163.866,280.455,204.434z"/>
<path fill="#FFFFFF" d="M186.668,232.5v-7.855h1.52l0.129,1.071h0.063c0.331-0.352,0.688-0.651,1.072-0.896
	c0.396-0.245,0.837-0.368,1.327-0.368c0.576,0,1.035,0.123,1.377,0.368c0.352,0.244,0.619,0.592,0.8,1.039
	c0.373-0.404,0.763-0.74,1.168-1.008c0.405-0.267,0.858-0.399,1.36-0.399c0.832,0,1.445,0.272,1.84,0.815
	c0.395,0.533,0.592,1.301,0.592,2.305v4.928h-1.855v-4.688c0-0.651-0.102-1.109-0.305-1.377c-0.191-0.267-0.49-0.399-0.896-0.399
	c-0.49,0-1.039,0.325-1.647,0.976v5.488h-1.84v-4.688c0-0.651-0.101-1.109-0.304-1.377c-0.192-0.267-0.496-0.399-0.912-0.399
	c-0.491,0-1.04,0.325-1.648,0.976v5.488H186.668z M201.904,232.691c-0.694,0-1.254-0.207-1.68-0.623
	c-0.428-0.428-0.641-0.987-0.641-1.68c0-0.416,0.085-0.785,0.256-1.104c0.182-0.331,0.458-0.613,0.832-0.849
	c0.385-0.234,0.864-0.432,1.439-0.592c0.586-0.16,1.285-0.283,2.097-0.367c-0.011-0.203-0.043-0.396-0.097-0.576
	c-0.043-0.192-0.123-0.357-0.239-0.496c-0.106-0.149-0.251-0.262-0.433-0.336c-0.182-0.086-0.405-0.129-0.672-0.129
	c-0.384,0-0.763,0.076-1.136,0.225c-0.362,0.148-0.72,0.331-1.071,0.544l-0.672-1.231c0.437-0.277,0.928-0.518,1.471-0.721
	c0.545-0.203,1.131-0.304,1.761-0.304c0.981,0,1.712,0.293,2.192,0.88c0.49,0.576,0.735,1.413,0.735,2.512v4.656h-1.521
	l-0.127-0.864h-0.064c-0.352,0.3-0.73,0.55-1.136,0.753C202.805,232.591,202.373,232.691,201.904,232.691z M202.496,231.252
	c0.32,0,0.607-0.075,0.863-0.225c0.267-0.148,0.55-0.362,0.849-0.639v-1.761c-0.534,0.063-0.981,0.149-1.345,0.256
	c-0.362,0.107-0.655,0.229-0.879,0.368c-0.225,0.128-0.385,0.277-0.48,0.448s-0.145,0.352-0.145,0.544
	c0,0.352,0.106,0.607,0.32,0.768C201.893,231.172,202.165,231.252,202.496,231.252z M210.615,232.691
	c-0.459,0-0.848-0.068-1.168-0.207c-0.311-0.139-0.566-0.332-0.768-0.576c-0.193-0.256-0.337-0.555-0.433-0.896
	c-0.086-0.352-0.128-0.74-0.128-1.168V226.1h-1.12v-1.375l1.216-0.08l0.225-2.145h1.535v2.145h2v1.455h-2v3.744
	c0,0.917,0.368,1.377,1.104,1.377c0.138,0,0.276-0.017,0.416-0.049c0.149-0.031,0.282-0.074,0.399-0.128l0.32,1.36
	c-0.214,0.074-0.459,0.139-0.736,0.191C211.212,232.66,210.924,232.691,210.615,232.691z M216.505,232.691
	c-0.532,0-1.034-0.09-1.504-0.271c-0.458-0.181-0.858-0.447-1.2-0.8c-0.341-0.353-0.607-0.784-0.8-1.296s-0.288-1.094-0.288-1.744
	s0.107-1.232,0.32-1.744c0.214-0.512,0.502-0.943,0.863-1.296c0.363-0.353,0.779-0.619,1.248-0.8
	c0.48-0.192,0.982-0.288,1.504-0.288c0.513,0,0.951,0.085,1.313,0.256c0.374,0.171,0.704,0.379,0.992,0.624l-0.896,1.2
	c-0.213-0.181-0.426-0.32-0.64-0.416c-0.202-0.107-0.426-0.16-0.672-0.16c-0.64,0-1.157,0.239-1.552,0.72
	c-0.395,0.469-0.592,1.104-0.592,1.904c0,0.789,0.191,1.424,0.576,1.904c0.395,0.469,0.901,0.703,1.52,0.703
	c0.31,0,0.598-0.063,0.863-0.191c0.278-0.139,0.528-0.299,0.752-0.48l0.752,1.217c-0.373,0.319-0.783,0.56-1.231,0.72
	C217.396,232.611,216.953,232.691,216.505,232.691z M220.463,232.5v-11.296h1.84v2.912l-0.064,1.52
	c0.332-0.309,0.693-0.581,1.089-0.815c0.405-0.245,0.88-0.368,1.424-0.368c0.843,0,1.456,0.272,1.84,0.815
	c0.384,0.533,0.576,1.301,0.576,2.305v4.928h-1.84v-4.688c0-0.651-0.097-1.109-0.288-1.377c-0.191-0.267-0.507-0.399-0.943-0.399
	c-0.342,0-0.646,0.085-0.912,0.256c-0.256,0.16-0.55,0.399-0.881,0.72v5.488H220.463z"/>
<path fill="#55E810" d="M155,267.5c5.799,0,10.5-4.701,10.5-10.5s-4.701-10.5-10.5-10.5s-10.5,4.701-10.5,10.5
	S149.201,267.5,155,267.5z"/>
<g>
	<path fill="#FFFFFF" d="M172.42,202.022c0-9.878,4.799-13.958,9.998-13.958c3.08,0,5.279,1.28,6.799,2.88l-2.479,2.8
		c-0.92-1.12-2.52-1.92-4.039-1.92c-3.2,0-5.799,2.359-5.999,9.398c1.479-1.88,3.679-3,5.519-3c4.399,0,7.438,2.56,7.438,7.879
		c0,5.079-3.639,8.358-7.999,8.358C176.66,214.46,172.42,210.581,172.42,202.022z M176.82,204.502
		c0.479,4.52,2.279,6.439,4.759,6.439c2.12,0,3.8-1.72,3.8-4.84c0-2.999-1.48-4.519-4-4.519
		C179.939,201.583,178.259,202.383,176.82,204.502z"/>
	<path fill="#FFFFFF" d="M192.14,210.861l2.2-2.96c1.52,1.56,3.479,2.8,6.039,2.8c2.76,0,4.679-1.439,4.679-3.84
		c0-2.64-1.68-4.319-7.479-4.319v-3.359c4.999,0,6.639-1.72,6.639-4.079c0-2.119-1.439-3.399-3.759-3.399
		c-2,0-3.559,0.96-5.119,2.399l-2.359-2.839c2.16-1.92,4.599-3.2,7.639-3.2c4.879,0,8.239,2.4,8.239,6.719
		c0,2.84-1.68,4.76-4.439,5.84v0.159c3,0.801,5.279,2.96,5.279,6.319c0,4.64-4.04,7.358-8.918,7.358
		C196.659,214.46,193.94,212.86,192.14,210.861z"/>
	<path fill="#FFFFFF" d="M212.899,195.584c0-5.239,2.56-8.239,6.239-8.239s6.238,3,6.238,8.239c0,5.278-2.559,8.318-6.238,8.318
		S212.899,200.862,212.899,195.584z M222.059,195.584c0-3.92-1.24-5.56-2.92-5.56s-2.92,1.64-2.92,5.56
		c0,3.919,1.24,5.639,2.92,5.639S222.059,199.503,222.059,195.584z M234.256,187.345h2.8l-14.237,27.115h-2.84L234.256,187.345z
		 M231.656,206.142c0-5.239,2.56-8.238,6.239-8.238c3.679,0,6.239,2.999,6.239,8.238c0,5.279-2.561,8.318-6.239,8.318
		C234.216,214.46,231.656,211.421,231.656,206.142z M240.814,206.142c0-3.919-1.239-5.559-2.919-5.559s-2.92,1.64-2.92,5.559
		c0,3.92,1.24,5.64,2.92,5.64S240.814,210.062,240.814,206.142z"/>
</g>
</svg>
